# xmcd
# 
# Track frame offsets:
#   150
#   16402
#   34280
#   50392
#   69215
#   87860
#   104717
#   121287
#   136977
#   151650
#   167957
#   185292
#   197540
#   216472
# 
# Disc length: 3089 seconds
# 
# Revision: 0
# Processed by: cddbd v1.5.1PL2 Copyright (c) Steve Scherf et al.
# Submitted via: Synapstar 1.0 
# 
DISCID=be0c0f0e
DTITLE=Various Artist - SD- Country hits
DYEAR=1900
DGENRE=Country
TTITLE0=George Strait - True
TTITLE1=Reba McEntire - Forever love
TTITLE2=Brooks and Dunn - How Long Gone
TTITLE3=The Wilkinsons - 26 Cents
TTITLE4=Diamond Rio - You're Gone
TTITLE5=Lonestar - Everything's Changed
TTITLE6=Sammy Kershaw - Honky Tonk America
TTITLE7=Tracy Byrd - I Wanna Feel that Way Again
TTITLE8=Suzy Bogguss - Somebody To Love
TTITLE9=Mark Wills - Don't Laugh At Me
TTITLE10=Linda Davis - I Wanna Remember This
TTITLE11=Neal McCoy - Love Happens Like That
TTITLE12=Lila Cann - Yippy Ky Yay
TTITLE13=Restless Heart - No End To This Road
EXTD=MediaType: Karaoke CD+G Producer: StarDisc
EXTT0=
EXTT1=
EXTT2=
EXTT3=
EXTT4=
EXTT5=
EXTT6=
EXTT7=
EXTT8=
EXTT9=
EXTT10=
EXTT11=
EXTT12=
EXTT13=
PLAYORDER=
